<svg xmlns="http://www.w3.org/2000/svg" xmlns:xlink="http://www.w3.org/1999/xlink" width="248" height="152.225" viewBox="0 0 248 152.225">
  <defs>
    <filter id="Path_2" x="3.438" y="0" width="122.122" height="152.225" filterUnits="userSpaceOnUse">
      <feOffset dx="4" dy="6" input="SourceAlpha"/>
      <feGaussianBlur stdDeviation="4" result="blur"/>
      <feFlood flood-opacity="0.161"/>
      <feComposite operator="in" in2="blur"/>
      <feComposite in="SourceGraphic"/>
    </filter>
  </defs>
  <g id="Group_1" data-name="Group 1" transform="translate(-623 -447.211)">
    <g id="_2" data-name="2" transform="translate(623 448)">
      <rect id="Rectangle_3" data-name="Rectangle 3" width="75.818" height="137.648" transform="translate(0 0.45)" fill="#beb9b9" opacity="0.9"/>
      <rect id="Rectangle_4" data-name="Rectangle 4" width="174" height="138" transform="translate(74)" fill="#beb9b9"/>
      <text id="Designer" transform="translate(104 124)" fill="#191818" font-size="31" font-family="SegoeUI-Semibold, Segoe UI" font-weight="600" opacity="0.7"><tspan x="0" y="0">Designer</tspan></text>
      <g transform="matrix(1, 0, 0, 1, 0, -0.79)" filter="url(#Path_2)">
        <path id="Path_2-2" data-name="Path 2" d="M28.829,31.868l4.16-9.278,11.241.984L47,45.2h0L28.773,57.754,6.192,35.814,25.824-.837l39.2,8.11,7.042,63.574.173,1.314h0l.023-.086.016-.059s-12,9.3-20.592,16.255c-10.636,8.606-25.619,19.778-25.619,19.778S4.622,85.318-2.128,76.231" transform="translate(17.87 21.97) rotate(-8)" fill="none" stroke="#191818" stroke-linejoin="round" stroke-width="9"/>
      </g>
    </g>
  </g>
</svg>
