<svg xmlns="http://www.w3.org/2000/svg" width="30" height="30" viewBox="0 0 30 30">
  <g id="icon" transform="translate(-125 -184.496)">
    <circle id="Ellipse_1" data-name="Ellipse 1" cx="15" cy="15" r="15" transform="translate(125 184.496)" fill="#5f5f79"/>
    <g id="shoppingcart" transform="translate(141.813 202.485)">
      <path id="Path_1" data-name="Path 1" d="M5.9,14.47a1.56,1.56,0,1,0,0,3.118,1.56,1.56,0,1,0,0-3.118ZM1,2V3.559H2.632L5.57,9.474l-1.1,1.91a1.455,1.455,0,0,0-.2.748A1.6,1.6,0,0,0,5.9,13.691h9.793V12.132H6.239a.2.2,0,0,1-.2-.195l.024-.094.734-1.27h6.08a1.638,1.638,0,0,0,1.428-.8l2.921-5.058a.735.735,0,0,0,.1-.374.8.8,0,0,0-.816-.779H4.436L3.668,2H1ZM14.057,14.47a1.56,1.56,0,1,0,1.632,1.559A1.594,1.594,0,0,0,14.057,14.47Z" transform="translate(-11.58 -12.99)" fill="#fff"/>
    </g>
  </g>
</svg>
